<svg width="12" height="21" viewBox="0 0 12 21" fill="none" xmlns="http://www.w3.org/2000/svg">
<path fill-rule="evenodd" clip-rule="evenodd" d="M0.551396 10.8288C0.477836 10.7554 0.419475 10.6683 0.379655 10.5723C0.339835 10.4763 0.319337 10.3735 0.319337 10.2696C0.319337 10.1657 0.339835 10.0628 0.379655 9.96682C0.419475 9.87086 0.477836 9.78369 0.551396 9.71032L10.03 0.231698C10.1783 0.0833791 10.3795 5.4725e-05 10.5893 5.47525e-05C10.799 5.478e-05 11.0002 0.0833792 11.1485 0.231699C11.2968 0.380018 11.3801 0.581182 11.3801 0.790937C11.3801 1.00069 11.2968 1.20186 11.1485 1.35018L2.22753 10.2696L11.1485 19.1889C11.2968 19.3373 11.3801 19.5384 11.3801 19.7482C11.3801 19.9579 11.2968 20.1591 11.1485 20.3074C11.0002 20.4557 10.799 20.5391 10.5893 20.5391C10.3795 20.5391 10.1783 20.4557 10.03 20.3074L0.551396 10.8288Z" fill="#517794"/>
</svg>
