<svg width="12" height="21" viewBox="0 0 12 21" fill="none" xmlns="http://www.w3.org/2000/svg">
<path fill-rule="evenodd" clip-rule="evenodd" d="M10.8287 9.71027C10.9023 9.78364 10.9607 9.8708 11.0005 9.96677C11.0403 10.0627 11.0608 10.1656 11.0608 10.2695C11.0608 10.3734 11.0403 10.4763 11.0005 10.5722C10.9607 10.6682 10.9023 10.7554 10.8287 10.8287L1.35011 20.3074C1.20179 20.4557 1.00063 20.539 0.790872 20.539C0.581117 20.539 0.379952 20.4557 0.231633 20.3074C0.083314 20.159 -1.04091e-05 19.9579 -1.04e-05 19.7481C-1.03908e-05 19.5384 0.0833141 19.3372 0.231633 19.1889L9.1526 10.2695L0.231634 1.35012C0.0833148 1.2018 -9.58048e-06 1.00064 -9.57131e-06 0.790882C-9.56215e-06 0.581127 0.0833149 0.379963 0.231634 0.231644C0.379953 0.0833245 0.581118 -4.58081e-07 0.790873 -4.48912e-07C1.00063 -4.39744e-07 1.20179 0.0833245 1.35011 0.231644L10.8287 9.71027Z" fill="#517794"/>
</svg>
