<svg width="42" height="44" viewBox="0 0 42 44" fill="none" xmlns="http://www.w3.org/2000/svg">
<path d="M36.4 21.334C37.275 21.9212 38.0552 22.5872 38.7406 23.332C39.426 24.0768 40.0167 24.8932 40.5125 25.7812C41.0083 26.6693 41.3729 27.6074 41.6063 28.5957C41.8396 29.584 41.9708 30.5938 42 31.625C42 33.3294 41.6719 34.9336 41.0156 36.4375C40.3594 37.9414 39.4552 39.252 38.3031 40.3691C37.151 41.4863 35.8167 42.3672 34.3 43.0117C32.7833 43.6562 31.15 43.9857 29.4 44C28.0729 44 26.7896 43.8066 25.55 43.4199C24.3104 43.0332 23.1729 42.4746 22.1375 41.7441C21.1021 41.0137 20.1833 40.14 19.3813 39.123C18.5792 38.1061 17.9594 36.9818 17.5219 35.75H0V2.75H5.6V0H8.4V2.75H28V0H30.8V2.75H36.4V21.334ZM2.8 5.5V11H33.6V5.5H30.8V8.25H28V5.5H8.4V8.25H5.6V5.5H2.8ZM16.8656 33C16.8219 32.556 16.8 32.0977 16.8 31.625C16.8 30.3932 16.975 29.1973 17.325 28.0371C17.675 26.877 18.2073 25.7812 18.9219 24.75H16.8V22H19.6V23.8477C20.1979 23.1172 20.8615 22.4727 21.5906 21.9141C22.3198 21.3555 23.1073 20.8757 23.9531 20.4746C24.799 20.0736 25.6812 19.7728 26.6 19.5723C27.5187 19.3717 28.4521 19.2643 29.4 19.25C30.8583 19.25 32.2583 19.4863 33.6 19.959V13.75H2.8V33H16.8656ZM29.4 41.25C30.7563 41.25 32.025 40.9993 33.2062 40.498C34.3875 39.9967 35.4229 39.3092 36.3125 38.4355C37.2021 37.5618 37.9021 36.5449 38.4125 35.3848C38.9229 34.2246 39.1854 32.9714 39.2 31.625C39.2 30.293 38.9448 29.0469 38.4344 27.8867C37.924 26.7266 37.224 25.7096 36.3344 24.8359C35.4448 23.9622 34.4094 23.2747 33.2281 22.7734C32.0469 22.2721 30.7708 22.0143 29.4 22C28.0437 22 26.775 22.2507 25.5938 22.752C24.4125 23.2533 23.3771 23.9408 22.4875 24.8145C21.5979 25.6882 20.8979 26.7051 20.3875 27.8652C19.8771 29.0254 19.6146 30.2786 19.6 31.625C19.6 32.957 19.8552 34.2031 20.3656 35.3633C20.876 36.5234 21.576 37.5404 22.4656 38.4141C23.3552 39.2878 24.3906 39.9753 25.5719 40.4766C26.7531 40.9779 28.0292 41.2357 29.4 41.25ZM30.8 30.25H35V33H28V24.75H30.8V30.25ZM5.6 22H8.4V24.75H5.6V22ZM11.2 22H14V24.75H11.2V22ZM11.2 16.5H14V19.25H11.2V16.5ZM5.6 27.5H8.4V30.25H5.6V27.5ZM11.2 27.5H14V30.25H11.2V27.5ZM19.6 19.25H16.8V16.5H19.6V19.25ZM25.2 19.25H22.4V16.5H25.2V19.25ZM30.8 19.25H28V16.5H30.8V19.25Z" fill="#2583E2"/>
</svg>
