<svg width="47" height="47" viewBox="0 0 47 47" fill="none" xmlns="http://www.w3.org/2000/svg">
<path d="M5.97748 42.3702L5.97731 42.3702C5.73287 42.4355 5.47556 42.4352 5.23124 42.3695C4.98692 42.3038 4.7642 42.175 4.58543 41.9959C4.40667 41.8169 4.27817 41.594 4.21284 41.3496C4.14751 41.1052 4.14764 40.848 4.2132 40.6036C4.21321 40.6036 4.21322 40.6036 4.21323 40.6035L5.50446 35.7831L5.97748 42.3702ZM5.97748 42.3702L10.8 41.0795C10.8004 41.0794 10.8008 41.0793 10.8012 41.0792C11.9611 40.7826 13.1895 40.9198 14.2555 41.4651L14.2579 41.4663L5.97748 42.3702ZM8.94331 8.94329C12.7487 5.13787 17.91 3 23.2917 3C28.6734 3 33.8346 5.13787 37.6401 8.94329C41.4455 12.7487 43.5834 17.91 43.5834 23.2917C43.5834 28.6734 41.4455 33.8346 37.6401 37.64C33.8347 41.4454 28.6736 43.5832 23.2921 43.5833C23.2919 43.5833 23.2918 43.5833 23.2917 43.5833V43.3333L8.94331 8.94329ZM8.94331 8.94329C5.13788 12.7487 3.00002 17.91 3.00002 23.2917M8.94331 8.94329L3.00002 23.2917M3.00002 23.2917C3.00002 26.5401 3.7634 29.6071 5.11706 32.3254M3.00002 23.2917L5.11706 32.3254M5.11706 32.3254C5.63095 33.3574 5.82471 34.5819 5.50453 35.7828L5.11706 32.3254ZM0.250017 23.292V23.2917C0.250017 10.5662 10.5663 0.25 23.2917 0.25C36.0171 0.25 46.3334 10.5662 46.3334 23.2917C46.3334 36.0171 36.0171 46.3333 23.2917 46.3333C19.6101 46.3333 16.1262 45.4679 13.0342 43.93C12.5694 43.6835 12.0308 43.6144 11.5189 43.7357L11.5189 43.7356L11.512 43.7375L6.68896 45.0266L6.68887 45.0267C3.57272 45.8609 0.722436 43.0106 1.55668 39.8945L2.84801 35.0715L2.84811 35.0715L2.84978 35.0645C2.97109 34.5525 2.90202 34.0139 2.65552 33.5491C1.06924 30.3629 0.245709 26.8513 0.250017 23.292ZM24.6667 14.6467V14.8414L24.8555 14.8891C27.1381 15.4655 29 17.2478 29 19.6798C29 20.0445 28.8552 20.3942 28.5973 20.6521C28.3394 20.91 27.9897 21.0548 27.625 21.0548C27.2603 21.0548 26.9106 20.91 26.6527 20.6521C26.3949 20.3942 26.25 20.0445 26.25 19.6798C26.25 18.6767 25.1795 17.4452 23.2917 17.4452C21.4038 17.4452 20.3334 18.6767 20.3334 19.6798C20.3334 20.6827 21.4035 21.9167 23.2917 21.9167C26.2029 21.9167 29 23.9287 29 26.9035C29 29.3357 27.138 31.12 24.8557 31.6942L24.6667 31.7418V31.9367V31.9583C24.6667 32.323 24.5218 32.6727 24.264 32.9306C24.0061 33.1885 23.6564 33.3333 23.2917 33.3333C22.927 33.3333 22.5773 33.1885 22.3194 32.9306C22.0616 32.6727 21.9167 32.323 21.9167 31.9583V31.9367V31.7418L21.7277 31.6942C19.4454 31.12 17.5834 29.3357 17.5834 26.9035C17.5834 26.5388 17.7282 26.1891 17.9861 25.9312C18.2439 25.6734 18.5937 25.5285 18.9584 25.5285C19.323 25.5285 19.6728 25.6734 19.9306 25.9312C20.1885 26.1891 20.3334 26.5388 20.3334 26.9035C20.3334 27.9066 21.4038 29.1382 23.2917 29.1382C25.1795 29.1382 26.25 27.9066 26.25 26.9035C26.25 25.9007 25.1799 24.6667 23.2917 24.6667C20.3804 24.6667 17.5834 22.6547 17.5834 19.6798C17.5834 17.2478 19.4453 15.4655 21.7279 14.8891L21.9167 14.8414V14.6467V14.625C21.9167 14.2603 22.0616 13.9106 22.3194 13.6527C22.5773 13.3949 22.927 13.25 23.2917 13.25C23.6564 13.25 24.0061 13.3949 24.264 13.6527C24.5218 13.9106 24.6667 14.2603 24.6667 14.625V14.6467Z" fill="#2583E2" stroke="white" stroke-width="0.5"/>
</svg>
