<svg width="18" height="21" viewBox="0 0 18 21" fill="none" xmlns="http://www.w3.org/2000/svg">
<path fill-rule="evenodd" clip-rule="evenodd" d="M0.23206 10.8288C0.1585 10.7554 0.100139 10.6683 0.060319 10.5723C0.0204986 10.4763 1.33306e-06 10.3735 1.34668e-06 10.2696C1.36031e-06 10.1657 0.0204987 10.0628 0.0603191 9.96682C0.100139 9.87086 0.158501 9.78369 0.23206 9.71032L9.71068 0.231698C9.859 0.0833791 10.0602 5.4725e-05 10.2699 5.47525e-05C10.4797 5.478e-05 10.6808 0.0833792 10.8292 0.231699C10.9775 0.380018 11.0608 0.581182 11.0608 0.790937C11.0608 1.00069 10.9775 1.20186 10.8292 1.35018L1.9082 10.2696L10.8292 19.1889C10.9775 19.3373 11.0608 19.5384 11.0608 19.7482C11.0608 19.9579 10.9775 20.1591 10.8292 20.3074C10.6808 20.4557 10.4797 20.5391 10.2699 20.5391C10.0602 20.5391 9.859 20.4557 9.71068 20.3074L0.23206 10.8288Z" fill="#517794"/>
<path fill-rule="evenodd" clip-rule="evenodd" d="M6.55115 10.8288C6.47759 10.7554 6.41923 10.6683 6.37941 10.5723C6.33959 10.4763 6.31909 10.3735 6.31909 10.2696C6.31909 10.1657 6.33959 10.0628 6.37941 9.96682C6.41923 9.87086 6.47759 9.78369 6.55115 9.71032L16.0298 0.231698C16.1781 0.0833791 16.3793 5.4725e-05 16.589 5.47525e-05C16.7988 5.478e-05 16.9999 0.0833792 17.1483 0.231699C17.2966 0.380018 17.3799 0.581182 17.3799 0.790937C17.3799 1.00069 17.2966 1.20186 17.1483 1.35018L8.22729 10.2696L17.1482 19.1889C17.2966 19.3373 17.3799 19.5384 17.3799 19.7482C17.3799 19.9579 17.2966 20.1591 17.1482 20.3074C16.9999 20.4557 16.7988 20.5391 16.589 20.5391C16.3793 20.5391 16.1781 20.4557 16.0298 20.3074L6.55115 10.8288Z" fill="#517794"/>
</svg>
