<svg width="18" height="21" viewBox="0 0 18 21" fill="none" xmlns="http://www.w3.org/2000/svg">
<path fill-rule="evenodd" clip-rule="evenodd" d="M17.1478 9.71027C17.2214 9.78364 17.2797 9.8708 17.3196 9.96677C17.3594 10.0627 17.3799 10.1656 17.3799 10.2695C17.3799 10.3734 17.3594 10.4763 17.3196 10.5722C17.2797 10.6682 17.2214 10.7554 17.1478 10.8287L7.6692 20.3074C7.52088 20.4557 7.31972 20.539 7.10996 20.539C6.90021 20.539 6.69904 20.4557 6.55073 20.3074C6.40241 20.159 6.31908 19.9579 6.31908 19.7481C6.31908 19.5384 6.40241 19.3372 6.55073 19.1889L15.4717 10.2695L6.55073 1.35012C6.40241 1.2018 6.31908 1.00064 6.31908 0.790882C6.31908 0.581127 6.40241 0.379963 6.55073 0.231644C6.69905 0.0833245 6.90021 -4.58081e-07 7.10996 -4.48912e-07C7.31972 -4.39744e-07 7.52088 0.0833245 7.6692 0.231644L17.1478 9.71027Z" fill="#517794"/>
<path fill-rule="evenodd" clip-rule="evenodd" d="M10.8287 9.71027C10.9023 9.78364 10.9607 9.8708 11.0005 9.96677C11.0403 10.0627 11.0608 10.1656 11.0608 10.2695C11.0608 10.3734 11.0403 10.4763 11.0005 10.5722C10.9607 10.6682 10.9023 10.7554 10.8287 10.8287L1.35011 20.3074C1.20179 20.4557 1.00063 20.539 0.790872 20.539C0.581117 20.539 0.379952 20.4557 0.231633 20.3074C0.083314 20.159 -1.04091e-05 19.9579 -1.04e-05 19.7481C-1.03908e-05 19.5384 0.0833141 19.3372 0.231633 19.1889L9.1526 10.2695L0.231634 1.35012C0.0833148 1.2018 -9.58048e-06 1.00064 -9.57131e-06 0.790882C-9.56215e-06 0.581127 0.0833149 0.379963 0.231634 0.231644C0.379953 0.0833245 0.581118 -4.52898e-07 0.790873 -4.48912e-07C1.00063 -4.44927e-07 1.20179 0.0833245 1.35011 0.231644L10.8287 9.71027Z" fill="#517794"/>
</svg>
