<svg width="27" height="27" viewBox="0 0 27 27" fill="none" xmlns="http://www.w3.org/2000/svg">
<circle cx="13.5" cy="13.5" r="13.5" fill="#517794"/>
<path d="M6.04688 8.555C6.14139 8.11324 6.37374 7.71881 6.70586 7.43631C7.03799 7.1538 7.4502 6.99997 7.875 7H19.125C19.5498 6.99997 19.962 7.1538 20.2941 7.43631C20.6263 7.71881 20.8586 8.11324 20.9531 8.555L13.5 13.414L6.04688 8.555ZM6 9.697V16.801L11.4403 13.243L6 9.697ZM12.3384 13.83L6.17906 17.857C6.33124 18.1993 6.57143 18.4884 6.87167 18.6908C7.17191 18.8931 7.51985 19.0004 7.875 19H19.125C19.4801 19.0001 19.8279 18.8926 20.128 18.6901C20.428 18.4876 20.668 18.1983 20.82 17.856L14.6606 13.829L13.5 14.586L12.3384 13.829V13.83ZM15.5597 13.244L21 16.801V9.697L15.5597 13.243V13.244Z" fill="white"/>
</svg>
