<svg width="28" height="28" viewBox="0 0 28 28" fill="none" xmlns="http://www.w3.org/2000/svg">
<g clip-path="url(#clip0_1142_175)">
<path d="M28.0001 14.0858C28.0001 6.30529 21.7316 -0.00170898 14.0001 -0.00170898C6.26508 4.10158e-05 -0.00341797 6.30529 -0.00341797 14.0875C-0.00341797 21.1173 5.11708 26.9448 11.8091 28.0018V18.158H8.25658V14.0875H11.8126V10.9813C11.8126 7.45154 13.9038 5.50204 17.1011 5.50204C18.6341 5.50204 20.2353 5.77679 20.2353 5.77679V9.24179H18.4696C16.7318 9.24179 16.1893 10.3285 16.1893 11.4433V14.0858H20.0708L19.4513 18.1563H16.1876V28C22.8796 26.943 28.0001 21.1155 28.0001 14.0858Z" fill="#2583E2"/>
</g>
<defs>
<clipPath id="clip0_1142_175">
<rect width="28" height="28" fill="white"/>
</clipPath>
</defs>
</svg>
