<svg width="24" height="24" viewBox="0 0 24 24" fill="none" xmlns="http://www.w3.org/2000/svg">
<path d="M23.5001 11.7636C23.5001 17.9906 18.5204 23.0273 12.3916 23.0273C6.26286 23.0273 1.2832 17.9906 1.2832 11.7636C1.2832 5.53662 6.26286 0.5 12.3916 0.5C18.5204 0.5 23.5001 5.53662 23.5001 11.7636Z" fill="white" stroke="white"/>
<path fill-rule="evenodd" clip-rule="evenodd" d="M5.87988 11.4768C5.87988 11.3585 5.92889 11.245 6.01611 11.1613C6.10334 11.0776 6.22164 11.0306 6.345 11.0306H17.3152L14.3878 8.22273C14.3005 8.13893 14.2514 8.02528 14.2514 7.90678C14.2514 7.78828 14.3005 7.67463 14.3878 7.59083C14.4751 7.50704 14.5936 7.45996 14.7171 7.45996C14.8406 7.45996 14.9591 7.50704 15.0464 7.59083L18.7673 11.1609C18.8107 11.2023 18.845 11.2516 18.8685 11.3058C18.8919 11.36 18.904 11.4181 18.904 11.4768C18.904 11.5355 18.8919 11.5936 18.8685 11.6478C18.845 11.7021 18.8107 11.7513 18.7673 11.7928L15.0464 15.3628C14.9591 15.4466 14.8406 15.4937 14.7171 15.4937C14.5936 15.4937 14.4751 15.4466 14.3878 15.3628C14.3005 15.279 14.2514 15.1653 14.2514 15.0468C14.2514 14.9283 14.3005 14.8147 14.3878 14.7309L17.3152 11.9231H6.345C6.22164 11.9231 6.10334 11.876 6.01611 11.7924C5.92889 11.7087 5.87988 11.5952 5.87988 11.4768Z" fill="#2583E2"/>
</svg>
