<svg width="161" height="29" viewBox="0 0 161 29" fill="none" xmlns="http://www.w3.org/2000/svg">
<g clip-path="url(#clip0_1122_210)">
<path d="M105.244 14.7663L102.1 13.2991C101.825 13.1717 101.6 13.3145 101.6 13.6183V16.3819C101.6 16.6857 101.825 16.8285 102.1 16.7011L105.243 15.2339C105.519 15.1051 105.519 14.8951 105.244 14.7663ZM103 1.56006C95.5773 1.56006 89.5601 7.57726 89.5601 15.0001C89.5601 22.4229 95.5773 28.4401 103 28.4401C110.423 28.4401 116.44 22.4229 116.44 15.0001C116.44 7.57726 110.423 1.56006 103 1.56006ZM103 20.4601C96.1205 20.4601 96.0001 19.8399 96.0001 15.0001C96.0001 10.1603 96.1205 9.54006 103 9.54006C109.88 9.54006 110 10.1603 110 15.0001C110 19.8399 109.88 20.4601 103 20.4601Z" fill="white"/>
</g>
<g clip-path="url(#clip1_1122_210)">
<path d="M147 1.56006C139.577 1.56006 133.56 7.57726 133.56 15.0001C133.56 22.4229 139.577 28.4401 147 28.4401C154.423 28.4401 160.44 22.4229 160.44 15.0001C160.44 7.57726 154.423 1.56006 147 1.56006ZM152.467 12.5697C152.473 12.6845 152.474 12.7993 152.474 12.9113C152.474 16.4113 149.813 20.4447 144.943 20.4447C143.505 20.4471 142.096 20.0338 140.886 19.2547C141.092 19.2799 141.303 19.2897 141.518 19.2897C142.758 19.2897 143.899 18.8683 144.805 18.1571C144.253 18.1462 143.718 17.9634 143.275 17.6342C142.832 17.3049 142.502 16.8456 142.332 16.3203C142.729 16.3956 143.137 16.3798 143.527 16.2741C142.928 16.1529 142.389 15.8283 142.002 15.3552C141.615 14.8821 141.403 14.2897 141.403 13.6785V13.6463C141.76 13.8437 142.169 13.9641 142.603 13.9781C142.041 13.6042 141.643 13.0298 141.491 12.3724C141.339 11.7151 141.444 11.0244 141.784 10.4417C142.449 11.2593 143.278 11.9281 144.218 12.4049C145.157 12.8817 146.187 13.1558 147.239 13.2095C147.106 12.6415 147.163 12.0452 147.403 11.5134C147.643 10.9815 148.052 10.5438 148.567 10.2684C149.081 9.99301 149.672 9.89527 150.248 9.9904C150.824 10.0855 151.352 10.3682 151.75 10.7945C152.343 10.6772 152.911 10.4599 153.43 10.1519C153.233 10.7652 152.819 11.2861 152.267 11.6177C152.792 11.5545 153.304 11.4134 153.787 11.1991C153.432 11.7309 152.985 12.1951 152.467 12.5697Z" fill="white"/>
</g>
<g clip-path="url(#clip2_1122_210)">
<path d="M62.8501 14.5001C62.8501 15.6538 62.3918 16.7602 61.576 17.576C60.7602 18.3918 59.6538 18.8501 58.5001 18.8501C57.3464 18.8501 56.2399 18.3918 55.4242 17.576C54.6084 16.7602 54.1501 15.6538 54.1501 14.5001C54.1501 14.2521 54.1762 14.01 54.2211 13.7751H52.7001V19.5707C52.7001 19.9738 53.0263 20.3001 53.4294 20.3001H63.5722C63.7654 20.2997 63.9505 20.2227 64.087 20.0859C64.2234 19.9492 64.3001 19.7639 64.3001 19.5707V13.7751H62.779C62.824 14.01 62.8501 14.2521 62.8501 14.5001ZM58.5001 17.4001C58.881 17.4 59.2582 17.3249 59.6101 17.179C59.962 17.0331 60.2817 16.8194 60.551 16.55C60.8203 16.2805 61.0339 15.9607 61.1796 15.6087C61.3252 15.2568 61.4002 14.8796 61.4001 14.4986C61.4 14.1177 61.3249 13.7405 61.179 13.3886C61.0331 13.0367 60.8194 12.717 60.55 12.4477C60.2805 12.1784 59.9607 11.9648 59.6087 11.8192C59.2568 11.6735 58.8796 11.5985 58.4986 11.5986C57.7293 11.5988 56.9916 11.9046 56.4477 12.4487C55.9039 12.9929 55.5984 13.7308 55.5986 14.5001C55.5988 15.2694 55.9046 16.0071 56.4487 16.551C56.9929 17.0948 57.7308 17.4003 58.5001 17.4001ZM61.9801 11.4551H63.7186C63.8341 11.4551 63.9449 11.4093 64.0267 11.3278C64.1085 11.2462 64.1547 11.1356 64.1551 11.0201V9.28153C64.1551 9.16577 64.1091 9.05476 64.0272 8.97291C63.9454 8.89106 63.8344 8.84508 63.7186 8.84508H61.9801C61.8643 8.84508 61.7533 8.89106 61.6715 8.97291C61.5896 9.05476 61.5436 9.16577 61.5436 9.28153V11.0201C61.5451 11.2593 61.7408 11.4551 61.9801 11.4551ZM58.5001 0.580078C54.8083 0.580078 51.2677 2.04665 48.6572 4.65715C46.0466 7.26766 44.5801 10.8083 44.5801 14.5001C44.5801 18.1919 46.0466 21.7325 48.6572 24.343C51.2677 26.9535 54.8083 28.4201 58.5001 28.4201C60.3281 28.4201 62.1382 28.06 63.827 27.3605C65.5159 26.6609 67.0504 25.6356 68.343 24.343C69.6356 23.0504 70.6609 21.5159 71.3605 19.827C72.06 18.1382 72.4201 16.3281 72.4201 14.5001C72.4201 12.6721 72.06 10.862 71.3605 9.17313C70.6609 7.48427 69.6356 5.94974 68.343 4.65715C67.0504 3.36456 65.5159 2.33922 63.827 1.63968C62.1382 0.94013 60.3281 0.580078 58.5001 0.580078ZM65.7501 20.1391C65.7501 21.0251 65.0251 21.7501 64.1391 21.7501H52.861C51.9751 21.7501 51.2501 21.0251 51.2501 20.1391V8.86103C51.2501 7.97508 51.9751 7.25008 52.861 7.25008H64.1391C65.0251 7.25008 65.7501 7.97508 65.7501 8.86103V20.1391Z" fill="white"/>
</g>
<g clip-path="url(#clip3_1122_210)">
<path d="M28.0001 15.0858C28.0001 7.30529 21.7316 0.998291 14.0001 0.998291C6.26508 1.00004 -0.00341797 7.30529 -0.00341797 15.0875C-0.00341797 22.1173 5.11708 27.9448 11.8091 29.0018V19.158H8.25658V15.0875H11.8126V11.9813C11.8126 8.45154 13.9038 6.50204 17.1011 6.50204C18.6341 6.50204 20.2353 6.77679 20.2353 6.77679V10.2418H18.4696C16.7318 10.2418 16.1893 11.3285 16.1893 12.4433V15.0858H20.0708L19.4513 19.1563H16.1876V29C22.8796 27.943 28.0001 22.1155 28.0001 15.0858Z" fill="white"/>
</g>
<defs>
<clipPath id="clip0_1122_210">
<rect width="28" height="28" fill="white" transform="translate(89 1)"/>
</clipPath>
<clipPath id="clip1_1122_210">
<rect width="28" height="28" fill="white" transform="translate(133 1)"/>
</clipPath>
<clipPath id="clip2_1122_210">
<rect width="29" height="29" fill="white" transform="translate(44)"/>
</clipPath>
<clipPath id="clip3_1122_210">
<rect width="28" height="28" fill="white" transform="translate(0 1)"/>
</clipPath>
</defs>
</svg>
