<svg width="23" height="23" viewBox="0 0 23 23" fill="none" xmlns="http://www.w3.org/2000/svg">
<path fill-rule="evenodd" clip-rule="evenodd" d="M22.2292 0.275442C22.3165 0.362532 22.3858 0.465993 22.4331 0.579896C22.4803 0.6938 22.5046 0.815909 22.5046 0.93923C22.5046 1.06255 22.4803 1.18466 22.4331 1.29856C22.3858 1.41247 22.3165 1.51593 22.2292 1.60302L1.60302 22.2292C1.42697 22.4053 1.1882 22.5042 0.939227 22.5042C0.690258 22.5042 0.451486 22.4053 0.275438 22.2292C0.0993906 22.0532 0.000488281 21.8144 0.000488281 21.5654C0.000488281 21.3165 0.0993906 21.0777 0.275438 20.9016L20.9016 0.275442C20.9887 0.188131 21.0922 0.118859 21.2061 0.0715941C21.32 0.0243293 21.4421 0 21.5654 0C21.6887 0 21.8108 0.0243293 21.9247 0.0715941C22.0387 0.118859 22.1421 0.188131 22.2292 0.275442Z" fill="white"/>
<path fill-rule="evenodd" clip-rule="evenodd" d="M0.275442 0.275442C0.188131 0.362532 0.118859 0.465993 0.0715941 0.579896C0.0243293 0.6938 0 0.815909 0 0.93923C0 1.06255 0.0243293 1.18466 0.0715941 1.29856C0.118859 1.41247 0.188131 1.51593 0.275442 1.60302L20.9016 22.2292C21.0777 22.4053 21.3165 22.5042 21.5654 22.5042C21.8144 22.5042 22.0532 22.4053 22.2292 22.2292C22.4053 22.0532 22.5042 21.8144 22.5042 21.5654C22.5042 21.3165 22.4053 21.0777 22.2292 20.9016L1.60302 0.275442C1.51593 0.188131 1.41247 0.118859 1.29856 0.0715941C1.18466 0.0243293 1.06255 0 0.93923 0C0.815909 0 0.6938 0.0243293 0.579896 0.0715941C0.465993 0.118859 0.362532 0.188131 0.275442 0.275442Z" fill="white"/>
</svg>
