<svg width="17" height="18" viewBox="0 0 17 18" fill="none" xmlns="http://www.w3.org/2000/svg">
<path d="M12.4764 11.6361C13.5051 10.1495 13.9659 8.30632 13.7665 6.47538C13.5671 4.64443 12.7222 2.96073 11.4009 1.76112C10.0796 0.56151 8.37925 -0.065537 6.64009 0.00542765C4.90094 0.0763923 3.25122 0.840135 2.02098 2.14386C0.790735 3.44758 0.070705 5.19514 0.00493676 7.0369C-0.0608315 8.87867 0.532513 10.6788 1.66626 12.0772C2.80001 13.4756 4.39055 14.3691 6.11968 14.579C7.84881 14.7888 9.589 14.2995 10.9921 13.209H10.991C11.0229 13.254 11.0569 13.2968 11.0952 13.3384L15.1856 17.6701C15.3849 17.8812 15.6551 17.9999 15.9369 18C16.2188 18.0001 16.4891 17.8816 16.6885 17.6707C16.8878 17.4597 16.9999 17.1735 17 16.8751C17.0001 16.5766 16.8882 16.2903 16.689 16.0792L12.5985 11.7475C12.5606 11.7068 12.5197 11.6692 12.4764 11.635V11.6361ZM12.7505 7.31117C12.7505 8.12381 12.5993 8.92849 12.3057 9.67927C12.012 10.43 11.5816 11.1122 11.0389 11.6868C10.4963 12.2615 9.85214 12.7173 9.14317 13.0283C8.4342 13.3392 7.67433 13.4993 6.90694 13.4993C6.13956 13.4993 5.37969 13.3392 4.67072 13.0283C3.96175 12.7173 3.31757 12.2615 2.77494 11.6868C2.23232 11.1122 1.80189 10.43 1.50823 9.67927C1.21456 8.92849 1.06341 8.12381 1.06341 7.31117C1.06341 5.66997 1.67907 4.096 2.77494 2.9355C3.87082 1.77499 5.35714 1.12303 6.90694 1.12303C8.45675 1.12303 9.94307 1.77499 11.0389 2.9355C12.1348 4.096 12.7505 5.66997 12.7505 7.31117Z" fill="#2583E2"/>
</svg>
