<svg width="21" height="16" viewBox="0 0 21 16" fill="none" xmlns="http://www.w3.org/2000/svg">
<path d="M0.065625 2.07333C0.197949 1.48432 0.523235 0.958417 0.98821 0.581744C1.45318 0.205072 2.03029 -4.06592e-05 2.625 6.04552e-09H18.375C18.9697 -4.06592e-05 19.5468 0.205072 20.0118 0.581744C20.4768 0.958417 20.8021 1.48432 20.9344 2.07333L10.5 8.552L0.065625 2.07333ZM0 3.596V13.068L7.61644 8.324L0 3.596ZM8.87381 9.10667L0.250688 14.476C0.463741 14.9324 0.800004 15.3179 1.22034 15.5877C1.64067 15.8575 2.12779 16.0005 2.625 16H18.375C18.8721 16.0001 19.3591 15.8568 19.7792 15.5868C20.1993 15.3168 20.5352 14.9311 20.748 14.4747L12.1249 9.10533L10.5 10.1147L8.87381 9.10533V9.10667ZM13.3836 8.32533L21 13.068V3.596L13.3836 8.324V8.32533Z" fill="#2583E2"/>
</svg>
