<svg width="20" height="20" viewBox="0 0 20 20" fill="none" xmlns="http://www.w3.org/2000/svg">
<path fill-rule="evenodd" clip-rule="evenodd" d="M2.35676 0.637742C2.57548 0.419343 2.8381 0.249922 3.12724 0.140707C3.41637 0.0314914 3.72541 -0.0150244 4.03389 0.00424171C4.34236 0.0235079 4.64321 0.108116 4.91651 0.252459C5.18981 0.396803 5.42932 0.597585 5.61916 0.841502L7.86284 3.72413C8.27408 4.25291 8.41908 4.94169 8.25658 5.59172L7.57285 8.32934C7.5375 8.47114 7.53941 8.61966 7.57839 8.7605C7.61738 8.90134 7.69211 9.0297 7.79534 9.13313L10.8665 12.2045C10.97 12.308 11.0986 12.3828 11.2397 12.4218C11.3807 12.4608 11.5295 12.4626 11.6715 12.427L14.4076 11.7433C14.7284 11.663 15.0632 11.6568 15.3867 11.725C15.7102 11.7933 16.014 11.9341 16.2751 12.137L19.1575 14.3796C20.1937 15.1859 20.2887 16.7172 19.3612 17.6435L18.0688 18.9361C17.1438 19.8611 15.7613 20.2674 14.4726 19.8136C11.1742 18.653 8.17942 16.7645 5.71041 14.2884C3.2346 11.8195 1.34631 8.82494 0.185583 5.52672C-0.266903 4.23916 0.139334 2.85534 1.06431 1.9303L2.35676 0.637742Z" fill="#2583E2"/>
</svg>
