<svg width="29" height="29" viewBox="0 0 29 29" fill="none" xmlns="http://www.w3.org/2000/svg">
<g clip-path="url(#clip0_1122_215)">
<path d="M18.8501 14.5001C18.8501 15.6538 18.3918 16.7602 17.576 17.576C16.7602 18.3918 15.6538 18.8501 14.5001 18.8501C13.3464 18.8501 12.2399 18.3918 11.4242 17.576C10.6084 16.7602 10.1501 15.6538 10.1501 14.5001C10.1501 14.2521 10.1762 14.01 10.2211 13.7751H8.70008V19.5707C8.70008 19.9738 9.02633 20.3001 9.42943 20.3001H19.5722C19.7654 20.2997 19.9505 20.2227 20.087 20.0859C20.2234 19.9492 20.3001 19.7639 20.3001 19.5707V13.7751H18.779C18.824 14.01 18.8501 14.2521 18.8501 14.5001V14.5001ZM14.5001 17.4001C14.881 17.4 15.2582 17.3249 15.6101 17.179C15.962 17.0331 16.2817 16.8194 16.551 16.55C16.8203 16.2805 17.0339 15.9607 17.1796 15.6087C17.3252 15.2568 17.4002 14.8796 17.4001 14.4986C17.4 14.1177 17.3249 13.7405 17.179 13.3886C17.0331 13.0367 16.8194 12.717 16.55 12.4477C16.2805 12.1784 15.9607 11.9648 15.6087 11.8192C15.2568 11.6735 14.8796 11.5985 14.4986 11.5986C13.7293 11.5988 12.9916 11.9046 12.4477 12.4487C11.9039 12.9929 11.5984 13.7308 11.5986 14.5001C11.5988 15.2694 11.9046 16.0071 12.4487 16.551C12.9929 17.0948 13.7308 17.4003 14.5001 17.4001V17.4001ZM17.9801 11.4551H19.7186C19.8341 11.4551 19.9449 11.4093 20.0267 11.3278C20.1085 11.2462 20.1547 11.1356 20.1551 11.0201V9.28153C20.1551 9.16577 20.1091 9.05476 20.0272 8.97291C19.9454 8.89106 19.8344 8.84508 19.7186 8.84508H17.9801C17.8643 8.84508 17.7533 8.89106 17.6715 8.97291C17.5896 9.05476 17.5436 9.16577 17.5436 9.28153V11.0201C17.5451 11.2593 17.7408 11.4551 17.9801 11.4551V11.4551ZM14.5001 0.580078C10.8083 0.580078 7.26766 2.04665 4.65715 4.65715C2.04665 7.26766 0.580078 10.8083 0.580078 14.5001C0.580078 18.1919 2.04665 21.7325 4.65715 24.343C7.26766 26.9535 10.8083 28.4201 14.5001 28.4201C16.3281 28.4201 18.1382 28.06 19.827 27.3605C21.5159 26.6609 23.0504 25.6356 24.343 24.343C25.6356 23.0504 26.6609 21.5159 27.3605 19.827C28.06 18.1382 28.4201 16.3281 28.4201 14.5001C28.4201 12.6721 28.06 10.862 27.3605 9.17312C26.6609 7.48427 25.6356 5.94974 24.343 4.65715C23.0504 3.36456 21.5159 2.33922 19.827 1.63968C18.1382 0.94013 16.3281 0.580078 14.5001 0.580078V0.580078ZM21.7501 20.1391C21.7501 21.0251 21.0251 21.7501 20.1391 21.7501H8.86103C7.97508 21.7501 7.25008 21.0251 7.25008 20.1391V8.86103C7.25008 7.97508 7.97508 7.25008 8.86103 7.25008H20.1391C21.0251 7.25008 21.7501 7.97508 21.7501 8.86103V20.1391V20.1391Z" fill="white"/>
</g>
<defs>
<clipPath id="clip0_1122_215">
<rect width="29" height="29" fill="white"/>
</clipPath>
</defs>
</svg>
