<svg width="29" height="28" viewBox="0 0 29 28" fill="none" xmlns="http://www.w3.org/2000/svg">
<path d="M18.854 13.92C18.854 15.0737 18.3957 16.1801 17.5799 16.9959C16.7641 17.8117 15.6577 18.27 14.504 18.27C13.3503 18.27 12.2439 17.8117 11.4281 16.9959C10.6123 16.1801 10.154 15.0737 10.154 13.92C10.154 13.6721 10.1801 13.4299 10.225 13.195H8.70398V18.9907C8.70398 19.3938 9.03023 19.72 9.43333 19.72H19.5761C19.7693 19.7196 19.9544 19.6426 20.0909 19.5059C20.2273 19.3691 20.304 19.1838 20.304 18.9907V13.195H18.7829C18.8279 13.4299 18.854 13.6721 18.854 13.92ZM14.504 16.82C14.8849 16.8199 15.2621 16.7448 15.614 16.5989C15.9659 16.4531 16.2856 16.2393 16.5549 15.9699C16.8242 15.7005 17.0378 15.3806 17.1835 15.0287C17.3291 14.6767 17.4041 14.2995 17.404 13.9186C17.4039 13.5376 17.3288 13.1604 17.1829 12.8085C17.037 12.4567 16.8233 12.1369 16.5539 11.8676C16.2844 11.5984 15.9646 11.3848 15.6126 11.2391C15.2607 11.0934 14.8835 11.0185 14.5025 11.0185C13.7332 11.0187 12.9955 11.3245 12.4516 11.8687C11.9078 12.4128 11.6023 13.1507 11.6025 13.92C11.6027 14.6893 11.9085 15.4271 12.4527 15.9709C12.9968 16.5148 13.7347 16.8202 14.504 16.82ZM17.984 10.875H19.7225C19.838 10.875 19.9488 10.8292 20.0306 10.7477C20.1124 10.6661 20.1586 10.5555 20.159 10.44V8.70145C20.159 8.5857 20.113 8.47468 20.0312 8.39283C19.9493 8.31098 19.8383 8.265 19.7225 8.265H17.984C17.8682 8.265 17.7572 8.31098 17.6754 8.39283C17.5935 8.47468 17.5475 8.5857 17.5475 8.70145V10.44C17.549 10.6792 17.7447 10.875 17.984 10.875ZM14.504 0C10.8122 0 7.27156 1.46657 4.66106 4.07707C2.05055 6.68758 0.583984 10.2282 0.583984 13.92C0.583984 17.6118 2.05055 21.1524 4.66106 23.7629C7.27156 26.3734 10.8122 27.84 14.504 27.84C16.332 27.84 18.1421 27.4799 19.8309 26.7804C21.5198 26.0809 23.0543 25.0555 24.3469 23.7629C25.6395 22.4703 26.6648 20.9358 27.3644 19.247C28.0639 17.5581 28.424 15.748 28.424 13.92C28.424 12.092 28.0639 10.2819 27.3644 8.59305C26.6648 6.90419 25.6395 5.36967 24.3469 4.07707C23.0543 2.78448 21.5198 1.75914 19.8309 1.0596C18.1421 0.360052 16.332 0 14.504 0ZM21.754 19.5591C21.754 20.445 21.029 21.17 20.143 21.17H8.86493C7.97898 21.17 7.25398 20.445 7.25398 19.5591V8.28095C7.25398 7.395 7.97898 6.67 8.86493 6.67H20.143C21.029 6.67 21.754 7.395 21.754 8.28095V19.5591Z" fill="#517794"/>
</svg>
