<svg width="29" height="29" viewBox="0 0 29 29" fill="none" xmlns="http://www.w3.org/2000/svg">
<g clip-path="url(#clip0_1142_173)">
<path d="M18.8501 14.5C18.8501 15.6536 18.3918 16.7601 17.576 17.5759C16.7602 18.3917 15.6538 18.85 14.5001 18.85C13.3464 18.85 12.2399 18.3917 11.4242 17.5759C10.6084 16.7601 10.1501 15.6536 10.1501 14.5C10.1501 14.252 10.1762 14.0099 10.2211 13.775H8.70008V19.5706C8.70008 19.9737 9.02633 20.3 9.42943 20.3H19.5722C19.7654 20.2996 19.9505 20.2226 20.087 20.0858C20.2234 19.9491 20.3001 19.7638 20.3001 19.5706V13.775H18.779C18.824 14.0099 18.8501 14.252 18.8501 14.5ZM14.5001 17.4C14.881 17.3999 15.2582 17.3247 15.6101 17.1789C15.962 17.033 16.2817 16.8193 16.551 16.5498C16.8203 16.2804 17.0339 15.9606 17.1796 15.6086C17.3252 15.2567 17.4002 14.8794 17.4001 14.4985C17.4 14.1176 17.3249 13.7404 17.179 13.3885C17.0331 13.0366 16.8194 12.7169 16.55 12.4476C16.2805 12.1783 15.9607 11.9647 15.6087 11.819C15.2568 11.6733 14.8796 11.5984 14.4986 11.5985C13.7293 11.5987 12.9916 11.9045 12.4477 12.4486C11.9039 12.9927 11.5984 13.7306 11.5986 14.5C11.5988 15.2693 11.9046 16.007 12.4487 16.5509C12.9929 17.0947 13.7308 17.4002 14.5001 17.4ZM17.9801 11.455H19.7186C19.8341 11.455 19.9449 11.4092 20.0267 11.3276C20.1085 11.2461 20.1547 11.1355 20.1551 11.02V9.28141C20.1551 9.16565 20.1091 9.05464 20.0272 8.97279C19.9454 8.89094 19.8344 8.84496 19.7186 8.84496H17.9801C17.8643 8.84496 17.7533 8.89094 17.6715 8.97279C17.5896 9.05464 17.5436 9.16565 17.5436 9.28141V11.02C17.5451 11.2592 17.7408 11.455 17.9801 11.455ZM14.5001 0.579956C10.8083 0.579956 7.26766 2.04652 4.65715 4.65703C2.04665 7.26754 0.580078 10.8081 0.580078 14.5C0.580078 18.1918 2.04665 21.7324 4.65715 24.3429C7.26766 26.9534 10.8083 28.42 14.5001 28.42C16.3281 28.42 18.1382 28.0599 19.827 27.3604C21.5159 26.6608 23.0504 25.6355 24.343 24.3429C25.6356 23.0503 26.6609 21.5158 27.3605 19.8269C28.06 18.1381 28.4201 16.328 28.4201 14.5C28.4201 12.672 28.06 10.8619 27.3605 9.173C26.6609 7.48415 25.6356 5.94962 24.343 4.65703C23.0504 3.36444 21.5159 2.3391 19.827 1.63955C18.1382 0.940008 16.3281 0.579956 14.5001 0.579956ZM21.7501 20.139C21.7501 21.025 21.0251 21.75 20.1391 21.75H8.86103C7.97508 21.75 7.25008 21.025 7.25008 20.139V8.86091C7.25008 7.97496 7.97508 7.24996 8.86103 7.24996H20.1391C21.0251 7.24996 21.7501 7.97496 21.7501 8.86091V20.139Z" fill="#2583E2"/>
</g>
<defs>
<clipPath id="clip0_1142_173">
<rect width="29" height="29" fill="white"/>
</clipPath>
</defs>
</svg>
