<svg width="27" height="27" viewBox="0 0 27 27" fill="none" xmlns="http://www.w3.org/2000/svg">
<circle cx="13.5" cy="13.5" r="13.5" fill="#517794"/>
<path d="M9.35782 6.66741C9.3576 7.10941 9.1805 7.53322 8.86548 7.84561C8.55047 8.158 8.12334 8.33337 7.67807 8.33315C7.2328 8.33293 6.80585 8.15713 6.49115 7.84443C6.17645 7.53173 5.99978 7.10774 6 6.66574C6.00022 6.22374 6.17732 5.79993 6.49233 5.48754C6.80735 5.17515 7.23447 4.99978 7.67975 5C8.12502 5.00022 8.55197 5.17602 8.86667 5.48872C9.18137 5.80142 9.35804 6.2254 9.35782 6.66741ZM9.40819 9.56725H6.05037V20H9.40819V9.56725ZM14.7135 9.56725H11.3725V20H14.68V14.5253C14.68 11.4755 18.6842 11.1922 18.6842 14.5253V20H22V13.392C22 8.25065 16.0735 8.44231 14.68 10.9672L14.7135 9.56725Z" fill="white"/>
</svg>
