<svg width="24" height="24" viewBox="0 0 24 24" fill="none" xmlns="http://www.w3.org/2000/svg">
<path fill-rule="evenodd" clip-rule="evenodd" d="M18.1201 11.4768C18.1201 11.5952 18.0711 11.7087 17.9839 11.7924C17.8967 11.876 17.7784 11.9231 17.655 11.9231L6.68476 11.9231L9.6122 14.7309C9.69954 14.8147 9.7486 14.9283 9.7486 15.0468C9.7486 15.1653 9.69954 15.279 9.6122 15.3628C9.52487 15.4466 9.40641 15.4937 9.2829 15.4937C9.15939 15.4937 9.04093 15.4466 8.9536 15.3628L5.23266 11.7927C5.18935 11.7513 5.15498 11.7021 5.13154 11.6478C5.10809 11.5936 5.09602 11.5355 5.09602 11.4768C5.09602 11.4181 5.10809 11.36 5.13154 11.3058C5.15498 11.2516 5.18935 11.2023 5.23266 11.1609L8.9536 7.59082C9.04093 7.50703 9.15939 7.45995 9.2829 7.45995C9.40641 7.45995 9.52487 7.50703 9.6122 7.59082C9.69954 7.67462 9.7486 7.78827 9.7486 7.90677C9.7486 8.02527 9.69954 8.13892 9.6122 8.22272L6.68476 11.0305L17.655 11.0305C17.7784 11.0305 17.8967 11.0776 17.9839 11.1613C18.0711 11.2449 18.1201 11.3584 18.1201 11.4768Z" fill="white"/>
<path d="M0.499929 11.7637C0.499929 5.5367 5.47959 0.500077 11.6084 0.500077C17.7371 0.500078 22.7168 5.5367 22.7168 11.7637C22.7168 17.9907 17.7371 23.0273 11.6084 23.0273C5.47958 23.0273 0.499928 17.9907 0.499929 11.7637Z" stroke="white"/>
</svg>
