<svg width="24" height="24" viewBox="0 0 24 24" fill="none" xmlns="http://www.w3.org/2000/svg">
<path fill-rule="evenodd" clip-rule="evenodd" d="M18.4272 11.517C18.4272 11.6358 18.3774 11.7497 18.2887 11.8337C18.2 11.9177 18.0797 11.9648 17.9543 11.9648L6.79832 11.9648L9.77532 14.7825C9.86413 14.8666 9.91403 14.9807 9.91403 15.0996C9.91403 15.2185 9.86413 15.3326 9.77532 15.4166C9.6865 15.5007 9.56604 15.548 9.44044 15.548C9.31484 15.548 9.19438 15.5007 9.10556 15.4166L5.32165 11.8341C5.2776 11.7925 5.24265 11.7431 5.21881 11.6887C5.19496 11.6342 5.18269 11.5759 5.18269 11.517C5.18269 11.4581 5.19496 11.3998 5.21881 11.3454C5.24265 11.291 5.2776 11.2416 5.32165 11.2L9.10556 7.6174C9.19438 7.53331 9.31484 7.48607 9.44044 7.48607C9.56604 7.48607 9.6865 7.53331 9.77532 7.6174C9.86413 7.70149 9.91403 7.81554 9.91403 7.93446C9.91403 8.05338 9.86413 8.16742 9.77532 8.25151L6.79832 11.0692L17.9543 11.0692C18.0797 11.0692 18.2 11.1164 18.2887 11.2004C18.3774 11.2843 18.4272 11.3983 18.4272 11.517Z" fill="#2583E2"/>
<circle cx="11.8049" cy="11.8049" r="10.8049" transform="rotate(-180 11.8049 11.8049)" stroke="#2583E2" stroke-width="2"/>
</svg>
