<svg width="36" height="36" viewBox="0 0 36 36" fill="none" xmlns="http://www.w3.org/2000/svg">
<path fill-rule="evenodd" clip-rule="evenodd" d="M8.60059 17.3535C8.60059 17.1746 8.67468 17.003 8.80657 16.8764C8.93847 16.7499 9.11735 16.6788 9.30388 16.6788H25.8917L21.4652 12.4331C21.3331 12.3064 21.2589 12.1346 21.2589 11.9554C21.2589 11.7762 21.3331 11.6044 21.4652 11.4777C21.5972 11.351 21.7763 11.2798 21.9631 11.2798C22.1498 11.2798 22.3289 11.351 22.461 11.4777L28.0873 16.8758C28.1528 16.9385 28.2048 17.013 28.2402 17.0949C28.2757 17.1769 28.2939 17.2648 28.2939 17.3535C28.2939 17.4423 28.2757 17.5302 28.2402 17.6122C28.2048 17.6941 28.1528 17.7686 28.0873 17.8313L22.461 23.2294C22.3289 23.3561 22.1498 23.4273 21.9631 23.4273C21.7763 23.4273 21.5972 23.3561 21.4652 23.2294C21.3331 23.1027 21.2589 22.9309 21.2589 22.7517C21.2589 22.5725 21.3331 22.4007 21.4652 22.2739L25.8917 18.0283H9.30388C9.11735 18.0283 8.93847 17.9572 8.80657 17.8307C8.67468 17.7041 8.60059 17.5325 8.60059 17.3535Z" fill="#2583E2"/>
<path d="M35.5001 17.7874C35.5001 27.3413 27.8591 35.0749 18.4473 35.0749C9.03556 35.0749 1.39453 27.3413 1.39453 17.7874C1.39453 8.23357 9.03556 0.5 18.4473 0.5C27.8591 0.5 35.5001 8.23357 35.5001 17.7874Z" stroke="#2583E2"/>
</svg>
