<svg width="28" height="18" viewBox="0 0 28 18" fill="none" xmlns="http://www.w3.org/2000/svg">
<path fill-rule="evenodd" clip-rule="evenodd" d="M-2.40087e-05 9C-2.40319e-05 9.26518 0.105326 9.51949 0.292849 9.707C0.480374 9.89451 0.734713 9.99986 0.999913 9.99986L24.5844 9.99986L18.2908 16.291C18.1979 16.3839 18.1241 16.4943 18.0738 16.6158C18.0235 16.7372 17.9976 16.8674 17.9976 16.9989C17.9976 17.1303 18.0235 17.2605 18.0738 17.382C18.1241 17.5035 18.1979 17.6138 18.2908 17.7068C18.3838 17.7997 18.4942 17.8735 18.6156 17.9238C18.7371 17.9741 18.8673 18 18.9988 18C19.1303 18 19.2605 17.9741 19.3819 17.9238C19.5034 17.8735 19.6138 17.7997 19.7067 17.7068L27.7062 9.7079C27.7994 9.61502 27.8732 9.50469 27.9236 9.38321C27.9741 9.26174 28 9.13152 28 9C28 8.86848 27.9741 8.73826 27.9236 8.61679C27.8732 8.49531 27.7994 8.38498 27.7062 8.2921L19.7067 0.293222C19.6138 0.200259 19.5034 0.126518 19.3819 0.0762055C19.2605 0.0258953 19.1303 1.13193e-06 18.9988 1.12044e-06C18.8673 1.10894e-06 18.7371 0.0258953 18.6156 0.0762054C18.4942 0.126517 18.3838 0.200259 18.2908 0.293222C18.1979 0.386186 18.1241 0.496547 18.0738 0.618009C18.0235 0.739471 17.9976 0.869653 17.9976 1.00112C17.9976 1.13259 18.0235 1.26277 18.0738 1.38424C18.1241 1.5057 18.1979 1.61606 18.2908 1.70902L24.5844 8.00014L0.999913 8.00014C0.734713 8.00014 0.480374 8.10548 0.292849 8.29299C0.105327 8.4805 -2.39855e-05 8.73482 -2.40087e-05 9Z" fill="#2583E2"/>
</svg>
