<svg width="23" height="24" viewBox="0 0 23 24" fill="none" xmlns="http://www.w3.org/2000/svg">
<path fill-rule="evenodd" clip-rule="evenodd" d="M5.04883 11.4564C5.04883 11.3407 5.09737 11.2297 5.18379 11.1479C5.2702 11.0661 5.3874 11.0201 5.5096 11.0201H16.3774L13.4773 8.27521C13.3907 8.1933 13.3421 8.08219 13.3421 7.96635C13.3421 7.8505 13.3907 7.73939 13.4773 7.65748C13.5638 7.57556 13.6811 7.52954 13.8035 7.52954C13.9259 7.52954 14.0432 7.57556 14.1297 7.65748L17.8159 11.1475C17.8588 11.188 17.8929 11.2362 17.9161 11.2892C17.9393 11.3422 17.9513 11.399 17.9513 11.4564C17.9513 11.5138 17.9393 11.5706 17.9161 11.6236C17.8929 11.6766 17.8588 11.7247 17.8159 11.7652L14.1297 15.2553C14.0432 15.3372 13.9259 15.3832 13.8035 15.3832C13.6811 15.3832 13.5638 15.3372 13.4773 15.2553C13.3907 15.1733 13.3421 15.0622 13.3421 14.9464C13.3421 14.8305 13.3907 14.7194 13.4773 14.6375L16.3774 11.8926H5.5096C5.3874 11.8926 5.2702 11.8467 5.18379 11.7648C5.09737 11.683 5.04883 11.5721 5.04883 11.4564Z" fill="#2583E2"/>
<circle cx="11.5" cy="11.7368" r="10.5" stroke="#2583E2" stroke-width="2"/>
</svg>
