<svg width="28" height="28" viewBox="0 0 28 28" fill="none" xmlns="http://www.w3.org/2000/svg">
<path d="M14.0035 0.97998C6.58068 0.97998 0.563477 6.99718 0.563477 14.42C0.563477 21.8428 6.58068 27.86 14.0035 27.86C21.4263 27.86 27.4435 21.8428 27.4435 14.42C27.4435 6.99718 21.4263 0.97998 14.0035 0.97998ZM19.4705 11.9896C19.4761 12.1044 19.4775 12.2192 19.4775 12.3312C19.4775 15.8312 16.8161 19.8646 11.9469 19.8646C10.5081 19.867 9.09923 19.4537 7.88968 18.6746C8.09548 18.6998 8.30688 18.7096 8.52108 18.7096C9.76148 18.7096 10.9025 18.2882 11.8083 17.577C11.2563 17.5661 10.7214 17.3834 10.2782 17.0541C9.83505 16.7249 9.50562 16.2655 9.33588 15.7402C9.73229 15.8156 10.1407 15.7998 10.5301 15.694C9.93094 15.5728 9.39215 15.2482 9.00507 14.7751C8.61798 14.302 8.40643 13.7096 8.40628 13.0984V13.0662C8.76328 13.2636 9.17208 13.384 9.60608 13.398C9.04439 13.0241 8.64678 12.4497 8.49454 11.7924C8.3423 11.135 8.44695 10.4443 8.78708 9.86158C9.45201 10.6792 10.2812 11.348 11.2211 11.8248C12.1609 12.3016 13.1904 12.5757 14.2429 12.6294C14.1091 12.0614 14.1667 11.4651 14.4067 10.9333C14.6467 10.4014 15.0557 9.96377 15.5702 9.68835C16.0846 9.41293 16.6756 9.31519 17.2513 9.41032C17.827 9.50545 18.3552 9.78812 18.7537 10.2144C19.3461 10.0972 19.9142 9.87986 20.4337 9.57178C20.2362 10.1852 19.8228 10.706 19.2703 11.0376C19.7951 10.9744 20.3075 10.8333 20.7907 10.619C20.4358 11.1508 19.9887 11.615 19.4705 11.9896Z" fill="#2583E2"/>
</svg>
