<svg width="28" height="28" viewBox="0 0 28 28" fill="none" xmlns="http://www.w3.org/2000/svg">
<g clip-path="url(#clip0_1122_213)">
<path d="M14.0001 0.560059C6.57726 0.560059 0.560059 6.57726 0.560059 14.0001C0.560059 21.4229 6.57726 27.4401 14.0001 27.4401C21.4229 27.4401 27.4401 21.4229 27.4401 14.0001C27.4401 6.57726 21.4229 0.560059 14.0001 0.560059ZM19.4671 11.5697C19.4727 11.6845 19.4741 11.7993 19.4741 11.9113C19.4741 15.4113 16.8127 19.4447 11.9435 19.4447C10.5047 19.4471 9.09581 19.0338 7.88626 18.2547C8.09206 18.2799 8.30346 18.2897 8.51766 18.2897C9.75806 18.2897 10.8991 17.8683 11.8049 17.1571C11.2529 17.1462 10.718 16.9634 10.2748 16.6342C9.83163 16.3049 9.50221 15.8456 9.33246 15.3203C9.72888 15.3956 10.1372 15.3798 10.5267 15.2741C9.92753 15.1529 9.38874 14.8283 9.00165 14.3552C8.61456 13.8821 8.40301 13.2897 8.40286 12.6785V12.6463C8.75986 12.8437 9.16866 12.9641 9.60266 12.9781C9.04098 12.6042 8.64336 12.0298 8.49112 11.3724C8.33888 10.7151 8.44353 10.0244 8.78366 9.44166C9.4486 10.2593 10.2778 10.9281 11.2177 11.4049C12.1575 11.8817 13.187 12.1558 14.2395 12.2095C14.1057 11.6415 14.1632 11.0452 14.4033 10.5134C14.6433 9.9815 15.0523 9.54384 15.5668 9.26843C16.0812 8.99301 16.6722 8.89527 17.2479 8.9904C17.8236 9.08553 18.3518 9.36819 18.7503 9.79446C19.3427 9.67724 19.9108 9.45993 20.4303 9.15186C20.2328 9.76525 19.8194 10.2861 19.2669 10.6177C19.7916 10.5545 20.3041 10.4134 20.7873 10.1991C20.4323 10.7309 19.9852 11.1951 19.4671 11.5697V11.5697Z" fill="white"/>
</g>
<defs>
<clipPath id="clip0_1122_213">
<rect width="28" height="28" fill="white"/>
</clipPath>
</defs>
</svg>
