<svg width="27" height="28" viewBox="0 0 27 28" fill="none" xmlns="http://www.w3.org/2000/svg">
<path d="M13.44 0.97998C6.0172 0.97998 0 6.99718 0 14.42C0 21.8428 6.0172 27.86 13.44 27.86C20.8628 27.86 26.88 21.8428 26.88 14.42C26.88 6.99718 20.8628 0.97998 13.44 0.97998ZM18.907 11.9896C18.9126 12.1044 18.914 12.2192 18.914 12.3312C18.914 15.8312 16.2526 19.8646 11.3834 19.8646C9.94461 19.867 8.53575 19.4537 7.3262 18.6746C7.532 18.6998 7.7434 18.7096 7.9576 18.7096C9.198 18.7096 10.339 18.2882 11.2448 17.577C10.6928 17.5661 10.1579 17.3834 9.71476 17.0541C9.27157 16.7249 8.94215 16.2655 8.7724 15.7402C9.16882 15.8156 9.57719 15.7998 9.9666 15.694C9.36747 15.5728 8.82868 15.2482 8.44159 14.7751C8.05451 14.302 7.84295 13.7096 7.8428 13.0984V13.0662C8.1998 13.2636 8.6086 13.384 9.0426 13.398C8.48092 13.0241 8.0833 12.4497 7.93106 11.7924C7.77883 11.135 7.88347 10.4443 8.2236 9.86158C8.88854 10.6792 9.71776 11.348 10.6576 11.8248C11.5974 12.3016 12.6269 12.5757 13.6794 12.6294C13.5456 12.0614 13.6032 11.4651 13.8432 10.9333C14.0832 10.4014 14.4923 9.96377 15.0067 9.68835C15.5211 9.41293 16.1121 9.31519 16.6879 9.41032C17.2636 9.50545 17.7917 9.78812 18.1902 10.2144C18.7826 10.0972 19.3508 9.87986 19.8702 9.57178C19.6727 10.1852 19.2593 10.706 18.7068 11.0376C19.2316 10.9744 19.744 10.8333 20.2272 10.619C19.8723 11.1508 19.4252 11.615 18.907 11.9896Z" fill="#517794"/>
</svg>
