<svg width="25" height="25" viewBox="0 0 25 25" fill="none" xmlns="http://www.w3.org/2000/svg">
<path d="M18.3476 16.1613C19.8605 14.0965 20.5381 11.5366 20.2449 8.99358C19.9516 6.4506 18.7092 4.11212 16.766 2.446C14.8229 0.779875 12.3224 -0.0910236 9.76484 0.00753841C7.20726 0.1061 4.7812 1.16685 2.97202 2.97758C1.16285 4.78831 0.103978 7.21547 0.00725994 9.77348C-0.089458 12.3315 0.783107 14.8317 2.45039 16.7739C4.11766 18.7161 6.4567 19.9571 8.99953 20.2485C11.5424 20.54 14.1015 19.8605 16.1649 18.3459H16.1633C16.2102 18.4084 16.2602 18.4678 16.3164 18.5256L22.3318 24.5418C22.6248 24.835 23.0222 24.9999 23.4367 25C23.8512 25.0001 24.2487 24.8356 24.5419 24.5426C24.8351 24.2496 24.9999 23.8521 25 23.4376C25.0001 23.023 24.8356 22.6254 24.5427 22.3322L18.5273 16.316C18.4714 16.2594 18.4113 16.2072 18.3476 16.1597V16.1613ZM18.7507 10.1544C18.7507 11.2831 18.5284 12.4007 18.0966 13.4434C17.6647 14.4862 17.0317 15.4336 16.2337 16.2317C15.4358 17.0298 14.4884 17.6629 13.4458 18.0948C12.4032 18.5267 11.2858 18.749 10.1573 18.749C9.02877 18.749 7.91131 18.5267 6.86871 18.0948C5.82611 17.6629 4.87877 17.0298 4.0808 16.2317C3.28283 15.4336 2.64984 14.4862 2.21798 13.4434C1.78612 12.4007 1.56384 11.2831 1.56384 10.1544C1.56384 7.87496 2.46922 5.68888 4.0808 4.07708C5.69238 2.46527 7.87815 1.55977 10.1573 1.55977C12.4364 1.55977 14.6222 2.46527 16.2337 4.07708C17.8453 5.68888 18.7507 7.87496 18.7507 10.1544Z" fill="white"/>
</svg>
