<svg width="27" height="27" viewBox="0 0 27 27" fill="none" xmlns="http://www.w3.org/2000/svg">
<circle cx="13.5" cy="13.5" r="13.5" fill="#517794"/>
<path d="M19.5164 7.47142C18.7335 6.68483 17.8012 6.06121 16.7737 5.63692C15.7463 5.21262 14.6443 4.99613 13.532 5.00005C8.87111 5.00005 5.07258 8.78042 5.06831 13.4214C5.06831 14.9078 5.45894 16.3539 6.19645 17.6342L5 22L9.48694 20.8291C10.7282 21.5016 12.1188 21.8541 13.532 21.8544H13.5363C18.1983 21.8544 21.9957 18.0741 22 13.4288C22.0011 12.3218 21.7821 11.2254 21.3556 10.203C20.9292 9.18052 20.3037 8.25218 19.5153 7.47142H19.5164ZM13.532 20.4286C12.2715 20.429 11.0342 20.0913 9.95015 19.4511L9.694 19.2981L7.03214 19.9929L7.74297 17.4079L7.57647 17.1412C6.87184 16.0259 6.49918 14.7347 6.50169 13.4172C6.50169 9.56454 9.65771 6.42167 13.5363 6.42167C14.4603 6.42002 15.3755 6.60046 16.2291 6.95259C17.0827 7.30472 17.8579 7.82158 18.5099 8.47335C19.1642 9.12259 19.6829 9.89436 20.0361 10.7442C20.3893 11.5939 20.5699 12.5049 20.5677 13.4246C20.5634 17.291 17.4074 20.4286 13.532 20.4286ZM17.3903 15.1862C17.1801 15.081 16.1416 14.5721 15.9463 14.4998C15.752 14.4308 15.6101 14.3946 15.4713 14.605C15.3294 14.8143 14.9238 15.2914 14.8021 15.4285C14.6804 15.5698 14.5545 15.5857 14.3432 15.4816C14.1329 15.3753 13.4509 15.1543 12.644 14.435C12.0143 13.8772 11.5927 13.1866 11.4668 12.9773C11.3451 12.7669 11.455 12.6543 11.5607 12.5491C11.6536 12.4556 11.771 12.3026 11.8766 12.1815C11.9834 12.0603 12.0186 11.9711 12.088 11.8308C12.1573 11.6885 12.1242 11.5673 12.0719 11.4622C12.0186 11.357 11.597 10.3189 11.4188 9.90029C11.248 9.48698 11.074 9.54435 10.9438 9.53904C10.8221 9.5316 10.6802 9.5316 10.5382 9.5316C10.431 9.53425 10.3255 9.55893 10.2284 9.6041C10.1312 9.64926 10.0445 9.71392 9.97363 9.79404C9.77938 10.0044 9.23612 10.5133 9.23612 11.5514C9.23612 12.5895 9.99391 13.5872 10.1006 13.7285C10.2052 13.8698 11.5885 15.9937 13.7113 16.9075C14.213 17.1253 14.6079 17.2538 14.9163 17.3516C15.4233 17.5131 15.8811 17.4886 16.2462 17.4366C16.6517 17.375 17.496 16.9266 17.6742 16.4346C17.8493 15.9416 17.8493 15.5209 17.7959 15.4327C17.7436 15.3435 17.6016 15.2914 17.3903 15.1862Z" fill="white"/>
</svg>
