<svg width="28" height="28" viewBox="0 0 28 28" fill="none" xmlns="http://www.w3.org/2000/svg">
<path d="M16.2477 14.1862L13.1033 12.719C12.8289 12.5916 12.6035 12.7344 12.6035 13.0382V15.8018C12.6035 16.1056 12.8289 16.2484 13.1033 16.121L16.2463 14.6538C16.5221 14.525 16.5221 14.315 16.2477 14.1862ZM14.0035 0.97998C6.58068 0.97998 0.563477 6.99718 0.563477 14.42C0.563477 21.8428 6.58068 27.86 14.0035 27.86C21.4263 27.86 27.4435 21.8428 27.4435 14.42C27.4435 6.99718 21.4263 0.97998 14.0035 0.97998ZM14.0035 19.88C7.12388 19.88 7.00348 19.2598 7.00348 14.42C7.00348 9.58018 7.12388 8.95998 14.0035 8.95998C20.8831 8.95998 21.0035 9.58018 21.0035 14.42C21.0035 19.2598 20.8831 19.88 14.0035 19.88Z" fill="#2583E2"/>
</svg>
