<svg width="28" height="28" viewBox="0 0 28 28" fill="none" xmlns="http://www.w3.org/2000/svg">
<g clip-path="url(#clip0_1122_211)">
<path d="M16.2443 13.7663L13.0999 12.2991C12.8255 12.1717 12.6001 12.3145 12.6001 12.6183V15.3819C12.6001 15.6857 12.8255 15.8285 13.0999 15.7011L16.2429 14.2339C16.5187 14.1051 16.5187 13.8951 16.2443 13.7663ZM14.0001 0.560059C6.57726 0.560059 0.560059 6.57726 0.560059 14.0001C0.560059 21.4229 6.57726 27.4401 14.0001 27.4401C21.4229 27.4401 27.4401 21.4229 27.4401 14.0001C27.4401 6.57726 21.4229 0.560059 14.0001 0.560059ZM14.0001 19.4601C7.12046 19.4601 7.00006 18.8399 7.00006 14.0001C7.00006 9.16026 7.12046 8.54006 14.0001 8.54006C20.8797 8.54006 21.0001 9.16026 21.0001 14.0001C21.0001 18.8399 20.8797 19.4601 14.0001 19.4601Z" fill="white"/>
</g>
<defs>
<clipPath id="clip0_1122_211">
<rect width="28" height="28" fill="white"/>
</clipPath>
</defs>
</svg>
